<?xml version="1.0" encoding="UTF-8"?><svg id="_圖層_1" xmlns="http://www.w3.org/2000/svg" viewBox="0 0 126 126"><circle id="_椭圆_3" cx="63" cy="63" r="63" style="fill:#fff;"/><g><path d="M59.63701,12.22448c.19698,.31454-.18989,.75919,.3848,.69774,.76297-.24939,1.21684,.44834,1.78969,.76643l1.52917,.06512c.38712,.12831,.57494,.18977,1.02695,.18977,.57285-.25489,1.33745-.31991,1.85457-.69957,.18968-.38677-.13003-.63811-.26395-.89657,0-.44111-.44123-.7664-.5098-1.14963-.57492-1.01591-1.78579-.5098-2.74391-.57126-.25869,.12294-.5098-.065-.70131,.12294-.70495-.12294-1.34135,.19881-1.98141,.12829-.18782,.19346-.45177,0-.70495,0-.31808,.13198-.63983-.44466-.89645-.12829,.51692,.3832,.82971,.96352,1.2166,1.47504" style="fill:#231815;"/><path d="M69.34589,43.26711c.12477-.25489,.072-.64178,.12477-.89838-.25503-.44834,.13162-.95448,.44811-1.34492,.76823-.37966,1.4732-.95446,2.05158-1.65943,.82077-.57114,.95446-1.531,1.72455-2.16556,.3073-.89655,.88751-1.72812,1.14254-2.621-.05779-.32186,.19515-.64178,.2566-1.025-.06146-.44466-.51163-.76457-.64004-1.20925,.06695-.19526,.06695-.38686-.06148-.58215-.57468-.31625-.8946-1.01948-1.6014-1.01948-.63271-.44466-1.46794-.50968-2.23435-.44466-.56738-.12648-1.08611-.06503-1.59065-.12648l-.06881,.12648c-.06146-.3182-.50957-.06503-.70678-.06503-.44261-.12843-.82239,.25306-1.33745,.13014-.89486,.31808-1.78236,.63983-2.6194,1.01765-1.08451,.89657-2.42219,1.09-3.44891,2.17277-.63638-.06146-.82626,1.025-1.53466,.70314-.25134,0-.37771-.18794-.44468-.37771,.06697-.25858,0-.58032,.25846-.70323,.31808-.77,.82788-1.21832,1.33768-1.92329,.77009-.57126,1.14596-1.52574,1.79314-2.10409,.44832-.7068,1.01937-1.34137,1.34135-2.1728,.63616-.38686,.44466-1.14791,1.15146-1.59614,.25294-.83155,1.33768-.69957,1.59245-1.53111,.95976-.893,.89645-2.23423,1.72457-3.12897,.18599-.58032,.96157-.06512,1.34135-.58032,.19148-.25122,.44445-.50614,.44445-.82788-.63616-.31991-.75908-1.15146-1.40259-1.40637-.76274,.06514-1.27277-.44466-1.97589-.50968-1.02488,.50968-1.91767,1.46771-3.0712,1.728-1.27599,.18805-2.29559,.828-3.50668,1.14425-.77009,.70323-1.86192,.64532-2.55955,1.47332-.57492-.12658-1.08841,.25479-1.65576,.19334-.51713,.19343-1.02693,.70323-1.73373,.51163-.18622-.13383-.38849-.25674-.63433-.3182-.31646,.37966-.25867,.76103-.31646,1.27254,.18622,.25491,.44466,.5098,.50797,.76471,.57675,.19343,.63821,.83155,1.14963,1.1478,.83155,.12843,1.72455,.32175,2.49097-.05779,.25317-.25846,.57837-.57483,.96181-.51335,.37587-.44468,.82788-.76643,1.33745-1.08646,.32198-.06319,.45201-.57299,.82971-.57299,.70128-.70323,1.53102-1.53466,2.55428-1.59612,.3832,.18977,.3832,.57114,.50957,.82603-.19148,.32543-.25456,.70142-.57102,.82788-.06148,.38689-.25869,.70863-.5098,1.09186-.31808,.76469-.76643,1.65757-1.46794,2.10775l-.70497,1.40271c-.57468,.5802-.95791,1.27623-.95791,2.0462l-.57492,.57492c.12658,.57297-.64351,.76643-.51692,1.27611-.37954,.25672-.50614,.76652-.76274,1.08829-.57494,.38137-.70131,1.27437-1.34137,1.6576-.06329,.63809-.70128,1.02131-.7664,1.60152-.57494,.76469-.89645,1.71551-1.65943,2.424-.06331,.89669-1.02305,1.27623-1.21477,2.04265-.06146,.7068-.57837,1.15146-.95814,1.59626-.19148,.51506-.70128,.9634-.83155,1.53466-.44445,.50968-.95791,1.02131-1.21085,1.60152-.06331,.50614-.57837,.69957-.57837,1.21111-.69809,.44832-.69809,1.2762-1.40487,1.72455-.18968,.63262-1.40442,.57483-1.08268,1.46416,.19172,.70495,0,1.4082,0,2.11132,.19172,.3832,.64006,.3832,1.01594,.44468,.19515,.12829,.57861-.06148,.77352,.06512,1.14803,0,1.85483-1.08463,2.23803-2.04092,.24928-.5802,.6364-1.09,1.01937-1.53823,.32198-.25308,.18439-.76288,.51346-1.08279,.44468-.18977,.12294-.7664,.50614-1.08643,0-.57299,.83523-.89291,.7068-1.466,.893-.64166,1.14617-1.66666,1.71539-2.36623,.57858-.57652,.77375-1.08817,1.40992-1.53283,.64006-.51335,1.02326-1.40637,1.786-1.8546,.25686-.25134,.57494-.3832,.95997-.44466,.25846-.57311,.44468-1.2112,1.08634-1.59443,.893-.63983,1.728-1.53466,2.75126-1.98841,.37794-.11925,.50614-.63259,.95814-.63259,.25296-.13198,.18805-.38332,.57104-.44834,.5153-.83155,1.59795-.76643,2.23963-1.46966,1.01775-.06686,1.97589-.57297,2.93403-.76459,.77009-.45006,1.72617-.25672,2.55222,0,.12841,.19162,.26029,.38139,.26029,.69774-.26029,.58206-.06148,1.4082-.83523,1.85288-.06146,.57663-.63616,1.02486-.7664,1.54006-.56738,.57309-.5059,1.52745-1.27599,1.91432-.19541,.57116-.44492,1.20571-.96181,1.52928-.12843-.06512-.18805-.1916-.24951-.25306-.44445-.32175-.89303-.57849-1.34663-.83155-.50064,.065-1.14596,.065-1.6521,.065-.19721,.1266-.45018,.25491-.70312,.18805-.63983,.32175-1.66309-.06146-2.23963,.44468-.82971,.06329-1.5998,.70863-2.42402,.32175-.25684,.06512-.18989,.26029-.18989,.44834,.69762,.57663-.06695,1.34663-.06695,1.98472,.38686,.50614,.57468,1.14425,.70128,1.72091-.18989,.5098,.25317,.83155,.32015,1.21475,.25822,.70314,.95974,.31991,1.34294,.63628,.89303,.3832,1.91629,.32175,2.61391,1.14963,0,1.28344-1.46245,1.4732-2.23068,2.17646-.64718,.50611-1.22027,1.02131-1.91789,1.39914-.82971,.0704-1.21294,.8984-1.9812,1.21463-.76457-.12291-1.40647,.70509-1.78762,1.15331,.38116,.18803,.5059-.32175,.82788-.32175,1.08451-.12648,1.85436-.83157,3.06568-.70314,.1266-.06329,.26029-.31637,.44811-.31637,.89302,.12648,1.85483-.12829,2.7515-.12829,.37954-.31637,.69579-.70326,1.20742-.828,.51346-.38677,1.03038-.50968,1.47137-1.02488,.18967-.38686,.64351-.63628,.835-1.01948,.44123-.57666,.83155-1.15329,1.07556-1.85286,.52058-.70314,.52058-1.59614,1.09024-2.17463,.18989-.24939-.06514-.5748,.06512-.82605" style="fill:#231815;"/><path d="M75.60569,53.61585c-.638-.8984-1.02329-1.91972-1.78786-2.81629-.19172-.44834-.89303-.3832-1.34113-.63454-.50635,.06329-1.02326-.25479-1.53466-.0704-.57311,.13369-1.07922-.18439-1.59614,0-.26052,0-.51004-.31637-.70152-.12294l.70152,.57116c.25639,.64349,.835,.96524,1.14939,1.53649,.32198,.38322,1.08291,.69957,.95814,1.40271,.12477,.44834,.25317,.77009,.64349,.95986,.24951,.18989,0,.45018-.0704,.64178-.38686,.44099-.89483,.76643-1.33951,1.14608,.31832,.50968,.8334,0,1.21111,0,.5153-.06331,.76664,.5748,1.21292,.70128,.45018-.25306,.96547,.06686,1.47137,.06686,.32015-.06686,.45018-.38677,.45018-.64168-.13003-.57126,.5098-.69957,.76297-1.02131,.19494-.57666-.25317-1.08277-.18986-1.71905" style="fill:#231815;"/><path d="M59.76703,54.8251c-.06308-.12463-.197-.12463-.31991-.19332-.197-.18989-.197-.44468-.197-.7014-.57309,.06329-1.07922,.63994-1.6576,.7014-.44834,.19332-.893-.06146-1.14596-.44468-.06512-.44834-.31646-.76286-.19538-1.2112-.38323,.05791-.25503,.44834-.44651,.63994-.51163,.5098-.31625,1.20925-.51163,1.84737,.25318,.5098,0,1.14791,.38344,1.66309,.63983,.50968,1.28334,1.01948,2.04425,1.40271,.3816,.06146,.89483,.12831,1.27806-.18794,.25134-.57849,1.02303-.77009,1.14963-1.47506-.06145-.31634-.18989-.56759-.18989-.95446-.38849-.25491-.32151-.63811-.19148-1.08646" style="fill:#231815;"/><path d="M58.55778,106.24712c-.01447,.0704-.06514,.13186-.16812,.17728,.32175,.59648,1.14413-1.45717,1.60326-1.71379-.03969,.15732,.04173,.40499,.01651,.54949,.11007,.03623,.42106,.0399,.4715-.09036,.06512-.18256,.25686-.35432,.12291-.59281,.07616-.06146,.13395-.06146,.26787-.11925,.03943-.28575,.29077-1.05584,.44811-1.26545,0-.01078,.60014-.78453,.61827-.57837-.0867-1.13357,1.531-2.11672,1.29067-3.47434,.44994-.30547,.44994-.84416,1.03747-1.08451,.52793-.29101,1.17511-.6545,1.82938-.59122,.39422-.11925,.72308,.05596,1.04482-.06329,.59281-.35798,1.24732-.2385,1.89816-.41577,.26005-.11925,.58204-.24216,.58204-.60016-.32198-.05779,.06857-.65793-.45567-.65793,0-.47723-.64694-.35432-.77721-.83155-.13393,0-.26761-.06491-.39764,0-.32198-.18073-.77927-.11925-1.10447-.18073-.52974,.18073-.98886,.11582-1.50577,.24218-.52058-.41922-.65817,.47357-1.11363,.17728-.19515-.11925-.19515-.30364-.26029-.48092,.72676-.94713-1.35555-2.76571-2.23252-3.03861-.84761-.25846-1.70804-.64535-2.63361-.51875,.02888,.60014,.17336,2.04263,.75196,2.48362-.12474,.47725,.3291,.77721,.19517,1.25101,.06878,.06491,.20088,.18439,.20088,.24216-.13209,.35777-.13209,.71575-.06695,1.07739-.13392,.29286-.52424,.35777-.78822,.41577-.39053-.058-.58387,.41922-.97625,.17706-.58915,.29995-1.23976,.47723-1.76057,.72122-.59281,.05596-1.25443,.23873-1.77501,.41028-.24951,.18094-.44832,.12843-.64899,.06697-.58732,.41577-1.30511,.53502-1.89633,.84049,0,.41577,.59122,.23321,.85517,.53502,.45384-.05779,.77904,.35798,1.24182,.17728,.77901,.35798,1.49659-.35432,2.27953-.23507,.39215-.24402,.98865-.06146,1.44066-.24402,.46095,.06331,.71573-.41394,1.17485-.29469,.3291,.06148,.52424,.29469,.52424,.5965-.06674,.23873,.26395,.35798,0,.53526-.52424,0-.19515,.65793-.58915,.83497-.32907,1.01594-1.16773,1.8546-1.43537,2.87237-.72308,.65427-.92005,1.49133-1.37392,2.20706-.19148,.12294-.39032,.23873-.45544,.42312,.19355,.35798-.26395,.53502-.45546,.71206,.12843,.59671-.72308,.53871-.5857,1.07396-.2674,.48249-1.1118,.84049-.91641,1.43697,.12477-.05779,.19151-.05779,.19151-.23873,0-.06146,.12474-.2385,.26212-.2385,.13735,.11925,.06512,.2385,.06512,.36324-.32724,.358-.65267,.71598-1.11363,.64901,.13578,.5442-.65082,.77904-.7123,1.14068-.1986,.11559-.39764,.29652-.65061,.17704v.11948c-.13919,.11925-.19881,.23852-.32541,.23852-.07223-.05779-.13897-.11927-.13897-.23852-.38895,0-.12843,.29998-.25686,.48068-.26395,.1807-.45727,.6545-.78979,.5965-.32198,.53523-.91296,.60197-1.36497,.95079-.71758,.41944-1.44432,.602-2.2181,.90218-.33252,.11559-.92167,.17704-.92167,.59648-.13369,.29652,.13371,.48251,.33438,.53502,.5873,0,1.10261-.29467,1.69543-.47723,.45384,.05779,.71779-.41028,1.1659-.35798,.52976-.2385,1.05217-.65979,1.5801-.95608,.25477-.29469,.71573-.53868,1.04116-.83521,.39032-.23852,.51872-1.01594,1.17508-.95448,.13186-.06146,.26005,.11582,.38663-.06146,.46095,.24216,.46095-.29998,.91113-.29998-.12474-.65793,.85494-.65793,1.04482-1.25098,.39767-.11925,.52769,.23873,.86045,.23873l.58387-.77742c.06148-.18256,.06148-.48251,.33093-.602,.06491-.17704,.06491-.53502,0-.71206-.13759,.29101-.33093,.53502-.58939,.59648,.19862,.17704,0,.41577-.06878,.59281-.06514,0-.19355,0-.19355-.05779-.06308-.17704,0-.41944,.19355-.53502-.06514,0-.13209-.06146-.19355-.11925,0-.11925-.1931-.30019,0-.47723,.3871,.23321,.52079-.358,.85172-.24402,.06491,0,.06491-.05779,.06491-.11399,.19698-.2385,.38686-.54397,.5857-.7827-.06146-.29652,.58915-.71206,.05962-.83497-.05962-.41946,.06674-.71598,.26581-1.01594,.19698-.05803,.26372,.11925,.38663,.24216-.2926,.36143,.26947,1.10996-.68499,1.00492-.02524,.08142-.05965,.19724-.11742,.26214" style="fill:#231815;"/><path d="M68.06946,103.37293c.55496,.32175-.09403,.95631,.72329,1.1822,.03257-.03966-.00733-.1807,.01057-.23483,.19904,.02891,.39948-.04885,.53892-.14837,.14081,.09586,.65084,.60197,.48801,.77904-.52058,.55865-1.22369-.55477-1.6397-.61806-.3995-.06146-.3995-.35798-.45729-.59648,.25686-.06146,.52058-.17728,.84439-.23873-.3871-.18073-.71413-.5965-1.10811-.83683-.19724-.06146-.06514-.35798-.3291-.30019l-.39422,.06146c-.39032-.47723-.84578,.11925-1.30488-.17521-.64718,.17521-1.17511,.233-1.89083,.17521,0,.54054,.45384,.77375,.78453,1.19481-.19904,.6545,.65796,.71596,1.04482,.89852,.26008,.35798,.77904,.41577,.97604,.65793,.58753,0,.85677,.65796,1.50761,.71575,.32703,.05434,.25663,.53526,.58939,.47723,.5857,.35798,1.16773,.53502,1.69726,1.07373,0,.23873,.25479,.30019,.39238,.41577,0,.30019,.52058,.36164,.52058,.72124,.19517,.30019,.71918,.23873,.84578,.6545,.39422,.35775,.32564,.95446,.84965,1.25993,0,.47357,.45753,.95448-.13003,1.25077,0,.48089-.58204,.30362-.91479,.41944-.19331,0-.39055,.06146-.51875,.2385,.51875,.11948,.97628,.48092,1.50052,.53526,.19308,.18073,.52058-.05434,.84761,.06146,.45544,.36326,.71939-.30019,1.24363-.06146,.32543-.05434,.45912,.24218,.58389,.47702,.4575,0,.65244,.41944,.97991,.602,.46441,.24216,.85679,.06146,1.3792,.12291,.18782-.30547,.5857-.12291,.84575-.36143,.19357-.89483-.1986-1.73007-.52424-2.57239-.58204-.47723-.45912-1.25627-1.04116-1.72983-.13369-.65793-.91273-.53868-1.24182-1.07371-.19698-.48275-.85494-.5442-1.17485-.95998-.45912-.41922-1.24389-.5965-1.63421-1.13152,0-.60016-.6561-.30364-.98153-.60016-.52791-.47357-1.24182-.65793-1.63235-1.25075l-.19517-.66345c-.46095,.11925-.91663-.23507-1.37918-.17728v.11948c.19881,.05779,.32907,.2385,.52767,.35775l.06148-.05779h.00916" style="fill:#231815;"/><path d="M62.75863,66.52242c-.45177,.64349-1.03381,1.28881-1.29593,2.06259-1.08451,1.92498-1.60349,4.116-2.12221,6.36824-.38506,.96157-.44285,2.25593-.76826,3.27553-.19151,1.48582-.38322,2.70425-.57494,4.12495-.0704,.1266,0,.31625,.19172,.25479,.5098-.1282,.4518-.7068,.76643-1.02488,.90378-1.4207,1.92866-2.7077,2.83796-4.12128,.44834-.7123,.83155-1.54753,1.5998-1.99564,.13369-.38344,.52058-.19355,.58204-.64189,.197,.12843,.25846-.13186,.31991-.19332,.58939-.5857,1.54384-.64718,1.74268-1.54729,.31808-.57675,1.08817-.32175,1.41703-.83521,.70678-.06146,1.47137,0,2.12221,.38689,.32198-.06697,.57837,.19148,.76826,.31991,.51872,1.28881-.51142,2.38434-.76826,3.54474-.06146,.57126-1.16041,1.2221-.32153,1.66675,.44445,.26029,.76988-.06512,1.16226,.19334,.5059-.06697,.95629,.18989,1.40809,.38686,.32518,.51508,1.02852,.7068,1.41908,1.16043,.31968,.25501,.57288,.83704,1.02831,.96364,.51532,.51875,.51532,1.22186,1.03245,1.73695,.57288,1.54384,1.0212,3.28469,.96319,4.95121-.26005,1.09552-1.28334,1.99564-1.86538,2.96823-.77742,.9634-2.06442,.9634-3.0909,1.53994-.51713,.32015-.77009-.32175-1.2221-.4536-1.03404-.25479-2.19262-.31625-3.02233,.4536-.64349,.38689-1.60899,.25869-1.9305,1.15698-.06697,.19172-.32198,.25843-.51715,.39053-1.54178-.19881-2.70059-1.61425-3.27917-2.96109-.39032-.26191-.32337-.71209-.45729-1.09895,.25869-.06146,.19721,.33093,.45729,.45912,.96547,.893,2.44051,1.53832,3.72934,1.21841,.12477-.12841,.25663-.06329,.38849-.19172,.6364-.45177,1.2221-.96524,1.86561-1.41358,.13003-.13369,.25843-.33069,.13003-.4536-.84028-.38689-1.41703-1.28884-2.1275-1.8023-.77169-.90197-1.60323-1.54729-2.18529-2.51255-.19355-.18803-.70861-.18803-.58204-.51346,.64694-.25111,1.16409-.06491,1.86538-.06491,.51506,.13005,1.03381,.3252,1.54384,.51325,.58204,.13209,1.15674,.45201,1.80023,.51346,.7123,.26029,1.15674,.90378,1.80758,1.35558,.19538,.06512,.32198,.26029,.57837,.12658,.32198-.31991,.44672-.83497,1.02693-.64166,.19172,.13186,.50956,.06329,.71046,.13186,.06329-.13186,.31968-.13186,.19331-.32517-.26027-.32198-.77352-.13026-1.02669-.32198,.31463-.57837,.76643-1.22186,1.0916-1.80207,.5786-1.47689-.19494-2.95904-1.22736-3.98759-.63985-.64718-1.66816-1.15698-2.69509-.96709-.39215,.19148-.5857,.64511-1.03014,.51692-.32564-.25846-.07247-.77375-.32564-1.09919,.06512-.70678,.13024-1.41358,.19538-2.11855,.05779-.7084,.82971-1.67021,.05779-2.19079-1.08817,.77009-2.11855,1.80416-2.95376,2.83268-.06148,.44996-.44811,.7084-.58389,1.09-.25134,.06674-.19515,.32177-.31991,.52058-.76985,1.35215-1.73901,2.69875-2.25041,4.18093-.70312,1.16062-1.28884,2.3176-1.9305,3.41103-.13209,.26029-.18989,.45018-.32381,.58206-.06491,.64189-.31968,1.21841-.64166,1.73533-.12477,1.35212,.45018,2.70425,.64166,3.98966-.12291,.44811-.38299,.89829-.31968,1.41175-.06331,0-.12843,.0704-.12843,.13186-.25869-.31991-.44835-.77375-.90035-.90195-.77375-.25846-.90723-1.02855-1.5473-1.54729,0-.37977-.06329-.76664-.37954-1.02855-.96707,.26191-1.67753,1.35375-2.6969,1.54729-.84625-.44834-1.55302-.89852-2.13323-1.6757-.25663-.06514-.64351-.24951-.7772-.51349,0-.5114-.12474-.9634-.31625-1.41358,0-1.925,0-3.86466,.51508-5.66696,.57837-.18965,.18805-1.35029,1.09529-1.02488,.32013-.25477,.70518-.38686,1.0939-.25477,.64166,.06146,1.08977,.57285,1.41541,1.02852,.57837,1.09529-.13392,2.25227,.57837,3.27529,0,.38872,.38665,.5857,.57471,.77558,.32907,.06514,.5857-.12841,.65082-.45018-.19538-1.34844,.1266-2.50542,.31625-3.79768,0-1.47689,.25846-2.95928,.58044-4.37631,.19494-.57858,0-1.2221,.44811-1.67044,.26052-1.03038,.64718-1.99195,.96892-2.96088,.06512-.77718,.77009-1.22186,.83866-1.99562,.25684-.70863,.69969-1.47689,1.28355-2.06076-.06514-.51508,.51163-.7084,.64877-1.16041,.56966-.31463,.44489-.95631,.95629-1.14963,.26398-.1266,.13395-.5802,.51692-.5802,.19541,.19332,.90218-.32543,.7123,.25479" style="fill:#231815;"/><path d="M35.6404,61.00726l-1.12429,.029c-.43022,.01618-.61277,.04875-.71767,.21511-.0813,.11387-.11559,.20057-.13371,.25846-.00906,.06503-.03795,.09403-.08142,.09403-.05411,0-.06672-.03795-.06672-.11937,0-.11925,.14264-.80254,.1572-.86043,.02168-.09943,.04335-.14276,.08679-.14276,.06503,0,.14092,.07223,.32531,.09034,.21865,.01984,.50614,.03257,.75553,.03257h2.9682c.24218,0,.40499-.02168,.52058-.03257,.10847-.02534,.16626-.03795,.20616-.03795,.04518,0,.05779,.04518,.05779,.1572,0,.15548-.02705,.67435-.02705,.86769-.0055,.07956-.02362,.11937-.07064,.11937-.05779,0-.07407-.02891-.0759-.14827l-.01444-.08313c-.01078-.19517-.21144-.40671-.87846-.41932l-.94908-.01996v3.07841c0,.68696,0,1.28344,.0399,1.60152,.02341,.20985,.06503,.37977,.28737,.40866,.10847,.01447,.27107,.02891,.38686,.02891,.07947,0,.12648,.02339,.12648,.06146,0,.0523-.06686,.07775-.14825,.07775-.49169,0-.97247-.02546-1.17487-.02546-.17725,0-.6545,.02546-.94734,.02546-.09748,0-.15539-.02546-.15539-.07775,0-.03807,.03245-.06146,.12465-.06146,.11396,0,.19895-.01444,.26762-.02891,.15365-.02888,.19334-.19881,.22234-.41209,.03245-.31465,.03245-.91113,.03245-1.59809v-3.07841Z" style="fill:#b9292b;"/><path d="M41.00374,64.65326c-.02891,0-.04152,.00366-.05779,.04161l-.34882,.86045c-.06695,.15732-.09769,.3128-.09769,.38686,0,.11559,.05962,.18256,.26029,.18256h.09586c.08142,0,.10114,.03257,.10114,.06857,0,.05434-.0344,.07064-.10664,.07064-.2188,0-.52058-.02546-.73752-.02546-.06857,0-.41763,.02546-.76643,.02546-.07959,0-.11582-.0163-.11582-.07064,0-.036,.01996-.06857,.07247-.06857,.06697,0,.13738-.00918,.20067-.00918,.29812-.0415,.41394-.24033,.54054-.56024l1.73166-4.01843c.0759-.18073,.12291-.25308,.19331-.25308,.09955,0,.12843,.05791,.19541,.20067,.16074,.35432,1.26336,2.96271,1.68282,3.93529,.25317,.57654,.44099,.66162,.56048,.68318,.09746,.01261,.17704,.02179,.24928,.02179,.05986,0,.08874,.02339,.08874,.06857,0,.05434-.02888,.07064-.28206,.07064-.22978,0-.7123,0-1.26728-.0163-.12477-.00916-.19517-.00916-.19517-.05434,0-.036,.00895-.06146,.08508-.06857,.04312-.00918,.08853-.06697,.05413-.1447l-.50797-1.28517c-.01444-.03795-.03966-.04161-.06695-.04161h-1.56174Zm1.42253-.34882c.02179,0,.03257-.01627,.02179-.04161l-.61827-1.62148c-.00895-.02339-.01447-.05779-.03602-.05779-.01811,0-.02546,.0344-.03623,.05779l-.62905,1.61425c-.02177,.03257,0,.04885,.00895,.04885h1.28884Z" style="fill:#b9292b;"/><path d="M47.38116,65.3909c.01606,.49512,.09769,.64718,.22589,.6905,.11582,.03417,.2424,.04335,.34882,.04335,.06695,0,.1103,.03257,.1103,.06857,0,.05434-.05779,.07064-.15525,.07064-.42679,0-.73409-.02546-.85334-.02546-.06331,0-.37245,.02546-.70863,.02546-.09403,0-.15548-.00918-.15548-.07064,0-.036,.05068-.06857,.11213-.06857,.08301,0,.20229-.00918,.29815-.02891,.16833-.04701,.1862-.2206,.20088-.77009l.06146-3.78885c0-.12648,.04312-.21685,.11192-.21685,.07959,0,.17338,.0976,.28575,.20961,.07569,.08679,1.06821,1.0955,2.02819,2.03359,.46095,.44466,1.33378,1.34672,1.42781,1.43709h.03074l-.06697-2.84163c-.00712-.39043-.06674-.49707-.22382-.55853-.0922-.04161-.25317-.04161-.34354-.04161-.08325,0-.10871-.02891-.10871-.06503,0-.05056,.07247-.05791,.1665-.05791,.3472,0,.70128,.0109,.84049,.0109,.0704,0,.32907-.0109,.64901-.0109,.08691,0,.14837,.00735,.14837,.05791,0,.03612-.03807,.06503-.11582,.06503-.06512,0-.1158,0-.20066,.029-.17521,.05056-.22795,.16086-.23321,.52241l-.08142,4.02188c0,.14837-.04861,.2025-.10297,.2025-.11765,0-.2025-.06146-.27473-.13738-.41028-.3832-1.23816-1.16773-1.92707-1.83475-.71918-.69234-1.4207-1.466-1.55072-1.58167h-.01468l.07064,2.61034Z" style="fill:#b9292b;"/><path d="M58.74032,65.83555c0,.16995,0,.17706-.08118,.22222-.44489,.22246-1.10102,.28758-1.61631,.28758-1.61953,0-3.0565-.73752-3.0565-2.50187,0-1.02498,.55313-1.73349,1.15489-2.08241,.62928-.37061,1.22921-.41934,1.78236-.41934,.4591,0,1.03771,.07592,1.17508,.10481,.13369,.02534,.36876,.06329,.52058,.06329,.07223,.01261,.09217,.03797,.09217,.0813,0,.07592-.04885,.24768-.04885,1.05022,0,.09952-.03255,.13921-.08668,.13921-.05434,0-.06146-.02891-.06512-.07775-.01813-.14276-.05436-.34525-.22774-.52596-.2025-.2025-.6905-.49169-1.43514-.49169-.35455,0-.81734,.00906-1.28013,.37966-.3651,.29998-.59993,.76997-.59993,1.55096,0,1.38115,.88567,2.37529,2.29559,2.37529,.1665,0,.31099,0,.45729-.07247,.10687-.04335,.13209-.10849,.13209-.22405v-.58389c0-.31268,0-.55496-.00735-.74841-.01078-.21865-.07224-.28734-.28734-.35063-.05068-.01263-.15708-.01984-.24768-.01984-.0704,0-.10481-.02903-.10481-.06514,0-.05422,.04335-.05779,.13921-.05779,.34513,0,.82077,.01078,1.01411,.01078,.20616,0,.55313-.01078,.77718-.01078,.08487,0,.12477,.00357,.12477,.05779,0,.03612-.0344,.06514-.08118,.06514-.04359,0-.09769,.00721-.17382,.01984-.18599,.03438-.25296,.12474-.26191,.35063-.00366,.19346-.00366,.44834-.00366,.76103v.7123Z" style="fill:#b9292b;"/><path d="M65.99264,62.76071c0-1.13702,0-1.35029-.01285-1.58891-.02156-.26029-.07935-.37416-.32703-.42838-.06329-.0163-.18989-.02351-.29101-.02351-.08325,0-.1266-.01813-.1266-.06697,0-.04873,.05068-.0704,.16443-.0704,.39583,0,.86961,.02168,1.07922,.02168,.3073,0,.74487-.02168,1.09184-.02168,.93635,0,1.27256,.31808,1.39548,.42838,.16283,.16088,.37059,.4989,.37059,.89474,0,1.06478-.7827,1.81846-1.84196,1.81846-.0399,0-.12108,0-.16283-.00721-.03417-.01078-.08851-.01447-.08851-.06686,0-.06329,.05434-.08679,.21145-.08679,.41943,0,1.00513-.46819,1.00513-1.23816,0-.24228-.02177-.75025-.44466-1.12441-.2674-.25122-.57471-.29641-.7467-.29641-.11375,0-.22565,.00723-.29629,.03245-.0344,.01273-.05779,.05791-.05779,.1447v3.00423c0,.68696,0,1.28344,.0415,1.60152,.0163,.20985,.06331,.37977,.28737,.40866,.1103,.01447,.2729,.02891,.38503,.02891,.08325,0,.11948,.02339,.11948,.06146,0,.0523-.05434,.07775-.14654,.07775-.49353,0-.96341-.02546-1.16064-.02546-.17155,0-.64532,.02546-.9453,.02546-.09586,0-.14447-.02546-.14447-.07775,0-.03807,.02156-.06146,.1119-.06146,.11399,0,.20435-.01444,.27107-.02891,.15365-.02888,.19174-.19881,.22429-.41209,.0344-.31465,.0344-.91113,.0344-1.59809v-1.32495Z" style="fill:#b9292b;"/><path d="M72.26159,63.28312c0-.97076,0-1.15329-.0055-1.35753-.02156-.21511-.08142-.27656-.28575-.33802-.05779-.02168-.17338-.029-.26374-.029-.06878,0-.11925-.02168-.11925-.06503,0-.04701,.0523-.05791,.15182-.05791,.34882,0,.76643,.0109,.90012,.0109,.22772,0,.82788-.0109,1.03221-.0109,.42472,0,.89303,.03623,1.2526,.26764,.18805,.12646,.46645,.45189,.46645,.88027,0,.47357-.26762,.88934-.91639,1.4082,.58387,.72296,1.05011,1.30145,1.44775,1.69543,.37061,.37059,.60016,.3995,.7068,.42312,.06697,.01444,.1103,.01444,.15732,.01444,.05596,0,.08325,.03623,.08325,.06857,0,.05434-.04356,.07064-.12658,.07064h-.62928c-.36876,0-.54582-.04152-.72286-.13209-.28575-.14081-.52974-.44468-.90218-.93452-.26921-.3542-.54028-.77904-.61987-.87306-.03969-.03612-.08325-.04518-.12108-.04518l-.59467-.01627c-.02705,0-.05434,.01627-.05434,.05422v.09036c0,.59293,.01078,1.09012,.03783,1.35753,.02362,.18989,.05962,.30913,.2532,.33802,.10319,.01261,.24216,.02179,.32358,.02179,.05779,0,.08325,.03623,.08325,.06857,0,.04518-.04885,.07064-.13576,.07064-.38116,0-.93086-.02546-1.02834-.02546-.12658,0-.54418,.02546-.8063,.02546-.0867,0-.13395-.02546-.13395-.07064,0-.03234,.02362-.06857,.10504-.06857,.10114,0,.17704-.00918,.23483-.02179,.13945-.02888,.17361-.14813,.19538-.33802,.0344-.2674,.0344-.76802,.0344-1.35753v-1.12429Zm.83683,.48629c0,.07407,.02179,.09941,.06146,.12291,.14287,.04152,.33804,.05413,.50064,.05413,.26395,0,.35798-.01984,.46828-.10297,.20593-.14104,.43022-.42298,.43022-.94725,0-.90012-.61644-1.13516-1.00859-1.13516-.16284,0-.31832,.00721-.39055,.01994-.03966,.01984-.06146,.03795-.06146,.09574v1.89266Z" style="fill:#b9292b;"/><path d="M78.90804,63.28312c0-.97076,0-1.15329-.00712-1.35753-.01813-.21511-.08325-.28746-.22222-.33447-.07796-.01982-.15731-.03255-.24033-.03255-.06881,0-.10504-.01078-.10504-.07409,0-.03795,.05227-.04885,.15365-.04885,.24768,0,.69945,.0109,.88751,.0109,.1665,0,.59305-.0109,.85151-.0109,.08139,0,.13186,.0109,.13186,.04885,0,.06331-.03623,.07409-.10297,.07409s-.11925,.01273-.19331,.029c-.17911,.02888-.23324,.1157-.24585,.33802-.02179,.20423-.02179,.38677-.02179,1.35753v1.12429c0,.61839,0,1.12452,.0344,1.39559,.01996,.17359,.06308,.27107,.25846,.29995,.09219,.01261,.2385,.02179,.34354,.02179,.06857,0,.10457,.03623,.10457,.06857,0,.04518-.05596,.07064-.12636,.07064-.44099,0-.893-.02546-1.06661-.02546-.15548,0-.60726,.02546-.87466,.02546-.06697,0-.11948-.02546-.11948-.07064,0-.03234,.02179-.06857,.10481-.06857,.10135,0,.17727-.00918,.23161-.02179,.13348-.02888,.16972-.12291,.19494-.30913,.02891-.26189,.02891-.76802,.02891-1.38641v-1.12429Z" style="fill:#b9292b;"/><path d="M85.47718,65.85711c.67789,0,.90744-.14102,1.02672-.33436,.04885-.09586,.094-.197,.11925-.28734,.01099-.07064,.03255-.11216,.06878-.11216,.05779,0,.06148,.0507,.06148,.2025,0,.20618-.07247,.61644-.11927,.77721-.03623,.11216-.08139,.16995-.20088,.16995-1.10078,0-2.21786-.0344-3.55552-.0344-.07935,0-.11375-.02339-.11375-.0704,0-.03623,.00526-.07226,.07566-.18805,.93659-1.39902,1.8929-2.84517,2.78224-4.16109h-1.24755c-.34147,0-.72653,0-.93245,.11927-.22063,.11937-.33987,.33619-.35455,.48444-.02522,.09036-.04678,.11204-.09034,.11204-.03786,0-.06674-.02891-.06674-.10297,0-.14825,.10112-.72845,.13186-.92191,.01444-.09217,.04701-.11937,.08325-.11937,.05413,0,.09746,.03623,.26212,.04518,.62539,.0163,.94713,.0109,1.22369,.0109h2.02821c.06146,0,.10847,.02534,.10847,.05056,0,.05791-.01813,.07775-.03257,.1266-.91822,1.43342-1.90528,2.88681-2.84163,4.23342h1.58353Z" style="fill:#b9292b;"/><path d="M89.65991,63.28312c0-.97076,0-1.15329-.00183-1.35753-.01421-.21511-.07752-.27656-.29079-.33802-.05434-.01627-.1665-.029-.26052-.029-.0704,0-.11742-.02168-.11742-.06503,0-.04701,.05963-.05791,.161-.05791,.33252,0,.76091,.0109,.94713,.0109,.20593,0,1.67204,.0054,1.80573,0,.11032-.00355,.22246-.02888,.26764-.03612,.04152-.00723,.07773-.03257,.11396-.03257,.02891,0,.04335,.03257,.04335,.06514,0,.0415-.03807,.11559-.05251,.41211-.00895,.065-.02707,.34157-.04152,.41932-.0055,.02534-.02177,.10309-.0759,.10309-.04518,0-.05413-.02719-.05413-.08142,0-.04152-.00366-.15722-.0399-.23129-.05413-.1157-.10847-.2025-.4339-.23138-.11558-.01813-.90721-.03257-1.03747-.03257-.03257,0-.04701,.01811-.04701,.06146v1.57263c0,.03795,.00895,.07052,.04701,.07052,.15365,0,1.00492,0,1.15672-.0163,.15365-.01627,.25686-.03255,.31465-.09757,.04885-.04344,.0759-.08313,.10481-.08313,.02546,0,.05068,.02891,.05068,.06503,0,.04161-.01102,.14459-.05068,.47-.01444,.12648-.02891,.38322-.02891,.42655,0,.05425-.00183,.14104-.07223,.14104-.04539,0-.05779-.02168-.05779-.04885-.00366-.06683-.00366-.15365-.01994-.23495-.03807-.12831-.12132-.21877-.36878-.24768-.12132-.01078-.86938-.03255-1.03771-.03255-.02888,0-.03783,.03255-.03783,.07052v.5098c0,.21865-.00552,.75736,0,.94725,.01444,.43548,.22037,.5295,.89829,.5295,.16833,0,.44489-.00709,.6201-.08118,.16443-.0743,.2385-.20982,.28575-.47195,.00712-.06697,.02888-.10114,.07935-.10114,.0399,0,.05411,.08668,.05411,.15732,0,.13921-.05044,.57288-.08668,.70314-.04678,.16993-.10664,.16993-.35958,.16993-.49169,0-.89119-.00733-1.20949-.02546-.32886-.00712-.57104-.01627-.76826-.01627-.07223,0-.21511,.00916-.37771,.00916-.1571,.00712-.32175,.0163-.45201,.0163-.07935,0-.13186-.02546-.13186-.07064,0-.03234,.01994-.06857,.10295-.06857,.10138,0,.17544-.00918,.2369-.02179,.13921-.02888,.17178-.14813,.19517-.33802,.02705-.2674,.02705-.76802,.02705-1.35753v-1.12429Z" style="fill:#b9292b;"/><path d="M72.00065,87.4638c.16064-.24509,.27624-.51437,.39141-.78282,.05843-.13619,.11666-.27256,.18102-.40609,.07455-.15466,.18454-.30121,.23966-.46223,.14392-.4204-.2722-.65725-.63315-.69421-.30631-.03137-.61023,.0482-.88938,.16774-.18226,.07805-.35534,.18316-.52038,.29269l1.54398,.47592c.03554-.06906,.07629-.13413,.12139-.1973l-.11814,.16325c.08838-.12206,.19348-.24211,.25403-.38231,.07677-.17776,.11239-.34625,.1143-.53736,.0172-.11984-.01161-.22736-.08643-.32255-.08642-.09877-.19314-.16581-.32014-.20114-.30433-.09807-.70016-.05167-.9816,.0958-.28359,.14859-.55258,.33044-.74668,.58964-.14968,.19988-.27067,.40386-.38207,.62653-.08006,.16003-.08556,.34664,.02788,.49356,.11722,.15182,.35933,.23169,.54105,.24362,.25637,.01682,.52956-.02215,.76069-.13828,.19619-.09857,.40099-.23043,.50256-.43348,.07969-.15929,.16015-.31801,.26393-.46328l-.11814,.16325c.05187-.06938,.10806-.13312,.17232-.19128l-.17007,.14724c.05036-.04263,.10286-.07965,.16012-.11251l-.21435,.12298,.02981-.01562-1.38817-.42789c-.00114,.11375-.00886,.22603-.04385,.33488l.05854-.17101c-.02653,.07285-.06534,.1362-.11034,.19895l.11814-.16325c-.09748,.13424-.20088,.26426-.27698,.41213-.06979,.13561-.08081,.28094-.01097,.41755,.07136,.13959,.20642,.23451,.359,.27715,.40455,.11306,.85083,.01024,1.19595-.21878,.04502-.02987,.09136-.05778,.13812-.08482l-.21435,.12298c.06258-.03554,.12619-.06907,.19344-.09496l-.25097,.09047c.02025-.00713,.04032-.01326,.06131-.01776l-.26259,.04713c.00847-.00162,.01701-.00257,.02562-.00283l-.24713,.00067c.00718-.00025,.01426,.00043,.02125,.00204l-.22091-.04248,.00875,.00305-.18394-.08231,.00737,.0045-.1362-.11883c.00459,.00367,.008,.00824,.01023,.01369l-.07772-.15203c.00254,.00658,.00373,.0134,.00358,.02046l.04983-.34153c-.32163,.49073-.46119,1.07491-.78282,1.56564-.09466,.14443-.07445,.36103,.02788,.49356,.11722,.15182,.35933,.23169,.54105,.24362,.48665,.03193,.99091-.15622,1.26325-.57175h0Z" style="fill:#231815;"/><path d="M72.84389,85.83976c-.0373,.01195-.07481,.02217-.11272,.03198-.11873,.03072,.19708-.03736,.1765-.03536-.02352,.00229-.04703,.00787-.07045,.01116-.07948,.01118-.1595,.01755-.23953,.02323l.24277-.01693c-.32919,.02247-.63213,.04825-.95469,.11714-.31851,.06803-.64811,.19615-.92211,.37348l1.55371,.12275,.007-.01382-.06887,.13248c.11036-.21226,.2487-.40978,.37663-.61156,.05998-.0946,.11948-.1897,.17264-.28835,.04404-.08172,.13444-.20984,.13878-.31473,.02486-.09126,.00371-.17019-.06345-.23679-.08721-.0726-.18757-.11592-.30107-.12996-.32979-.06221-.66207,.03028-.97048,.13728-.27468,.0953-.56241,.25374-.77152,.45895-.14907,.14629-.27542,.31027-.42025,.45988l.12688-.13061c-.07505,.0754-.15551,.14301-.24236,.20444l.17683-.12202-.02762,.01878c-.13077,.08891-.33165,.21217-.37258,.3851-.03447,.14563,.05794,.26362,.18933,.31709,.19523,.07944,.42772,.08169,.63211,.04999,.24713-.03833,.52338-.10231,.73227-.24433,.23495-.15974,.42406-.31222,.61668-.52114,.08318-.09022,.15755-.18816,.24287-.27646l-.12688,.13061c.04121-.04124,.08453-.07904,.13172-.11331l-.17683,.12202c.03981-.02732,.08085-.05127,.12404-.0729l-.21871,.10672c.04181-.01954,.08417-.0364,.12775-.05153l-1.335-.22947c-.00232,.0562-.03367,.11187-.05855,.16067l.06887-.13248c-.19225,.36776-.44853,.69679-.63651,1.06778l-.00278,.12764,.06623,.10915,.12588,.0803c.09074,.038,.18483,.05743,.28226,.05829,.16317,.01315,.32018-.00229,.48037-.03475,.20307-.04115,.42639-.10439,.60175-.21788,.04569-.02957,.09225-.05632,.1409-.08067l-.21871,.10672c.02799-.01308,.05605-.02491,.08454-.03682,.11414-.04773-.18552,.05962-.16798,.05533,.02827-.00691,.05629-.0158,.08454-.02295,.13175-.03337-.27191,.04966-.16241,.03295,.09835-.015,.19666-.02494,.29589-.03198l-.24277,.01693c.37932-.02589,.75822-.04423,1.12377-.16135,.22604-.07242,.46425-.15545,.64806-.31346,.08805-.07569,.25171-.24886,.19853-.39072-.05653-.1508-.21878-.21621-.3673-.23911-.23355-.03601-.4936-.01931-.71796,.05257h0Z" style="fill:#231815;"/><path d="M59.00335,106.23879c.08583-.17461,.1468-.36305,.19545-.55126,.03492-.13509,.06586-.27108,.11309-.4026l-.06003,.16547c.01909-.05143,.04045-.1017,.06463-.15094l-1.80282,.33367c.08595,.08658,.17046,.17864,.22857,.2868l-.07607-.14587c.02312,.04495,.04086,.09212,.04401,.14294l-.00706-.16436c.0009,.02842-.00304,.05565-.01252,.08247l.06003-.16547c-.00833,.02152-.01947,.04113-.03295,.05982l.11939-.15856c-.02151,.02854-.047,.05322-.07412,.07638l.17104-.14362c-.21778,.18273-.46496,.33049-.59995,.59309-.05188,.07747-.07072,.16002-.0565,.24765-.00797,.08526,.01856,.16128,.0796,.22805,.06113,.07387,.13648,.12457,.22606,.1521,.09684,.04923,.20059,.07512,.31128,.07766,.25637,.01392,.52844-.02639,.76006-.14062,.19411-.09573,.40299-.22357,.50542-.42282,.01012-.01969,.02181-.03821,.03498-.05599l-.11939,.15856c.02726-.03546,.05925-.06632,.0934-.09508l-.17104,.14362c.05696-.04722,.11847-.08853,.17575-.13533,.1527-.12477,.32119-.25547,.40289-.44289,.07458-.17108,.08223-.22874,.06549-.41231-.00373-.0409-.01394-.07886-.03097-.11639-.08127-.17907-.18053-.32107-.31768-.45922l-.13472-.11329-.18268-.07762-.21994-.03885c-.12795-.01223-.25384-.00323-.37768,.02699-.08932,.00904-.17491,.03197-.25678,.0688-.08366,.02194-.16136,.05699-.23309,.10515-.07266,.03201-.13699,.07606-.19301,.13213-.08529,.06068-.1536,.13747-.20492,.23037-.08577,.17463-.14673,.36305-.19537,.55126-.03491,.1351-.06587,.27109-.11313,.4026l.06003-.16547c-.0191,.05143-.04048,.1017-.06468,.15094-.05188,.07747-.07072,.16002-.0565,.24765-.00797,.08526,.01856,.16128,.0796,.22805,.06113,.07387,.13648,.12457,.22606,.1521,.09684,.04923,.20059,.07512,.31128,.07766,.25637,.01392,.52844-.02639,.76006-.14062,.192-.09469,.40735-.22331,.50542-.42282h0Z" style="fill:#231815;"/><path d="M57.37959,107.25966c.20733-.00193,.41476-.04215,.61525-.09098,.12372-.03014,.24647-.06934,.36325-.12034,.07997-.03492,.1843-.07825,.26905-.12561,.07742-.04326,.15263-.09262,.22626-.14186,.08283-.05538,.1569-.12997,.22761-.19726,.09402-.08947,.16657-.2068,.22287-.32211,.05442-.11147,.06444-.22917,.06559-.35254-.02127-.06397-.06235-.10636-.12324-.12717-.06967-.04529-.1474-.06906-.23317-.07133-.11119-.01372-.22197-.01269-.33235,.00309-.12925,.00756-.25628,.02966-.3811,.06631l-.25307,.08266c-.14274,.05363-.27591,.12496-.3995,.21397l-.13,.11898c-.06509,.06489-.09157,.14194-.07942,.23112-.00008,.0088-.00033,.01754-.00073,.02632l.00687-.11237c-.00622,.09649-.03907,.18754-.08882,.26996l.07254-.11876c-.03609,.05803-.07961,.11031-.12969,.15679l.13-.11898c-.03217,.02911-.06634,.05538-.10288,.07878l.17924-.11304c-.02593,.01614-.05262,.03063-.08035,.04345l.22026-.10093c-.01927,.00858-.03875,.01627-.05871,.02311l.25307-.08266c-.01983,.00646-.03978,.01196-.06013,.0165l.26049-.05495c-.02024,.00417-.04047,.00729-.06103,.00936l.24122-.02272c-.01462,.00121-.02919,.00188-.04385,.00202-.12596,.00264-.24979,.01937-.37147,.0502-.13148,.02285-.25926,.05957-.38332,.11013-.11064,.03892-.21393,.0914-.30988,.15745-.08338,.04517-.15659,.10367-.21962,.1755l-.07254,.11876c-.02758,.08108-.00916,.14982,.05526,.20625l.1222,.06657c.12499,.03831,.25293,.05375,.38382,.04631h0Z" style="fill:#231815;"/><path d="M66.39606,103.95158c.27522,.11973,.53999,.26059,.79698,.41546,.03334,.02009,.06657,.04036,.09962,.06091-.05187-.03225,.00343,.00231,.02395,.01559,.06674,.04319,.13324,.08675,.19925,.13105,.14275,.0958,.28365,.19436,.42341,.29447,.5454,.39067,1.07357,.80473,1.61897,1.1954,.34983,.25058,.90036,.14973,1.27041-.01159,.18351-.08,.41139-.18222,.52318-.35654,.06569-.10243,.13742-.27091,.00668-.36455-1.10419-.79091-2.15664-1.7239-3.41316-2.27054-.40513-.17625-1.0037-.02639-1.36379,.19654-.23541,.14573-.60851,.50979-.1855,.69382h0Z" style="fill:#231815;"/><path d="M67.87822,105.34866c1.1312,0,1.45845-1.49304,.15037-1.49304-1.1312,0-1.45845,1.49304-.15037,1.49304h0Z" style="fill:#231815;"/><path d="M67.85655,104.08275c.56461,0,2.09824-.83989,.82-.83989-.56461,0-2.09824,.83989-.82,.83989h0Z" style="fill:#231815;"/><path d="M69.15265,105.18482c.37561,0,1.11533-.12251,1.27124-.54193,.14707-.39563-.12608-.62344-.53846-.62344-.37561,0-1.11533,.12251-1.27124,.54193-.14707,.39563,.12608,.62344,.53846,.62344h0Z" style="fill:#231815;"/><path d="M68.8586,105.09973c.41249,0,1.09393-.11359,1.26331-.57156,.14885-.40249-.13291-.73642-.56873-.73642-.41249,0-1.09393,.11359-1.26331,.57156-.14885,.40249,.13291,.73642,.56873,.73642h0Z" style="fill:#231815;"/><path d="M69.44195,105.56594c.65754,0,2.07341-.98826,.78024-.98826-.65754,0-2.07341,.98826-.78024,.98826h0Z" style="fill:#231815;"/><path d="M69.42923,104.89239c.59755,0,2.09018-.8933,.80569-.8933-.59755,0-2.09018,.8933-.80569,.8933h0Z" style="fill:#231815;"/><path d="M69.60349,104.35984l-.00558-.00012,.24876,.00541c-.0207-.00124-.04092-.00516-.06112-.0097l.22344,.05191c-.13699-.03297-.26785-.09297-.3931-.15621l.18721,.09452c-.24957-.12815-.48154-.28844-.68639-.48034l.14007,.13324c-.09522-.091-.1831-.18807-.26281-.29296l-.70519,1.09387c.09807-.02761,.19696-.05104,.29736-.06845l-.26317,.04498c.10645-.01739,.21336-.02759,.32128-.02655l-.24876-.00541c.08195,.00187,.16278,.01033,.24291,.02787l-.22344-.05191c.0727,.01716,.14235,.04145,.20939,.07449l-.18721-.09452c.07347,.03788,.14013,.08487,.20088,.1409l-.14007-.13324c.10074,.09617,.17753,.21122,.23885,.33576l-.08201-.16807c.11532,.24132,.17305,.50525,.21137,.76858,.02733,.18779,.25188,.33778,.40929,.39582,.21886,.08071,.51434,.07895,.73536,.01234,.23129-.06971,.47967-.1816,.63067-.37837l.11487-.17546c.05857-.11912,.07246-.24311,.04167-.37198-.05932-.40759-.17816-.84712-.44121-1.17382-.31025-.38533-.79393-.6048-1.28566-.6213-.18066-.00606-.35777-.01226-.53648,.01415-.20317,.03002-.40558,.06452-.60333,.1202-.27672,.07792-.52885,.22284-.6881,.4661-.12604,.19253-.16721,.43021-.01709,.62777,.26014,.34236,.60567,.63756,.98057,.84832,.17616,.09903,.35929,.19474,.54937,.26529,.04274,.01586,.08598,.02975,.13006,.04136,.22826,.06011,.30994,.06427,.54847,.06945,.13584-.00661,.26529-.03704,.38836-.09129,.12321-.03657,.23585-.09503,.33792-.17538,.14663-.11212,.32791-.3181,.33709-.51755,.00893-.19407-.06478-.37864-.23509-.48786l-.18721-.09452c-.1533-.05171-.3107-.07082-.47219-.05732h0Z" style="fill:#231815;"/><path d="M72.48167,85.45955c-.10374,.02121-.20823,.04043-.31062,.06768-.10147,.02701-.20091,.06185-.30018,.09578-.01673,.00572-.03309,.01226-.04934,.01923-.08525,.03655-.17308,.07109-.25525,.11452-.15863,.08384-.32676,.19034-.44661,.32715-.04733,.05403-.08567,.11744-.12324,.17799-.01737,.02798-.03218,.0575-.04496,.08783-.028,.06644-.04628,.13651-.06055,.20704-.02748,.05845-.02046,.10766,.02106,.14762,.02994,.05764,.08006,.09185,.15035,.10262,.09032,.02689,.18224,.03821,.27574,.03396,.11586,.00637,.23109-.00157,.34568-.02383l.26021-.05599c.1645-.04317,.32264-.10304,.4744-.17959l.18047-.10846c.08962-.0564,.15829-.13133,.20601-.22481,.02194-.10839,.05378-.21679,.11518-.3099l-.07442,.11176c.0241-.03566,.05212-.06794,.08453-.09628l-.13159,.11305c.01966-.01675,.04046-.03181,.06243-.04538l-.18047,.10846c.01969-.01183,.03999-.02232,.06094-.03172l-.22105,.09798c.02041-.00888,.04119-.01666,.06236-.02353l-.25335,.08161c.02289-.00717,.04603-.01326,.06944-.01847l-.26021,.05599c.00492-.00107,.00984-.0021,.01477-.00309,.1324-.01946,.26136-.05172,.38689-.0968,.12061-.03394,.23652-.0802,.34773-.13878,.09186-.04146,.17395-.09646,.24626-.16498,.06179-.04278,.10852-.09888,.14021-.16828l.00896-.10458c-.03428-.07858-.09441-.12713-.18038-.14566l-.17048-.03211c-.15114-.01133-.30146-.004-.45094,.02198h0Z" style="fill:#231815;"/><path d="M71.63963,85.10662c-.02094,.00017-.0418,.00119-.06261,.0036-.1021,.01182-.20596,.0318-.30666,.05194-.11793,.02359-.24179,.07955-.34646,.12093-.10771,.04258-.20557,.11311-.30271,.17332-.03282,.02034-.06413,.04257-.09347,.06772-.11158,.09564-.22979,.19831-.31476,.32112-.08535,.12336-.17169,.24746-.22822,.38705-.04984,.08877-.06601,.18127-.0485,.27749-.00511,.09593,.02428,.18261,.08817,.26005,.06117,.08349,.13896,.14329,.23337,.17939,.09662,.05772,.20223,.0905,.31682,.09833l.24867,.00508c.17966-.01426,.35085-.06013,.51356-.13761l.21281-.12874c.12084-.08785,.21508-.19817,.28272-.33097,.02785-.06877,.0618-.13453,.10255-.19656l-.11504,.1748c.03806-.05675,.08131-.10935,.13082-.15649l-.16768,.15617c.03714-.03455,.07706-.06542,.12036-.09188l-.21281,.12874c.03267-.01935,.06656-.03584,.10208-.04926l-.25043,.09251c.03299-.0119,.06658-.02087,.10113-.02689l-.26313,.04509c.02949-.00464,.059-.00705,.08885-.00729,.1358-.00674,.26525-.03719,.38835-.09135,.12317-.03654,.23585-.09487,.33803-.17499,.09532-.06408,.17039-.14527,.2252-.24357,.06371-.07847,.10118-.16915,.11241-.27205l-.01278-.18569c-.03769-.12648-.11157-.22637-.22164-.29966l-.18703-.09386c-.1533-.05131-.31062-.07013-.47197-.05649h0Z" style="fill:#231815;"/><path d="M67.7393,104.20033c.5648,0,2.0982-.84021,.81991-.84021-.5648,0-2.0982,.84021-.81991,.84021h0Z" style="fill:#231815;"/><path d="M66.9485,104.03904c.01565,.0736,.03749,.14478,.06758,.2138,.05109,.11719,.10737,.24098,.18383,.34523,.07434,.10136,.17137,.18878,.26437,.27156,.05379,.04787,.11316,.08737,.17703,.12045l.18763,.09611c.11292,.0431,.22901,.06185,.34825,.05624,.21389,.00533,.4469-.03324,.63805-.13451,.31474-.16674,.60673-.45523,.53479-.84073-.01125-.06027-.01877-.12059-.02396-.18168l.01356,.18864c-.01223-.17041-.01592-.34102-.03093-.51136-.00974-.11049-.02856-.21654-.07609-.31751l-1.84928,.68779c.23591,.28874,.5479,.48937,.81714,.74174l-.14057-.13511c.12421,.11953,.22399,.25184,.30008,.40682l-.08257-.17015c.11916,.25213,.20008,.53726,.39751,.74183,.0612,.08479,.13933,.14585,.23438,.18316,.09659,.05887,.20245,.0926,.31758,.10119,.24127,.03232,.54696-.0172,.76253-.13141,.19513-.10337,.41016-.25054,.49417-.4648,.06584-.16792,.0982-.40086-.04196-.54608-.07441-.0771-.13052-.16396-.17766-.25988l.08257,.17015c-.13853-.29365-.24053-.60526-.47239-.84196-.22545-.23016-.48539-.41268-.71933-.63197l.14057,.13511c-.0515-.04956-.10011-.10122-.14535-.15658-.28344-.34691-.8047-.34216-1.18933-.1994-.18396,.06828-.38327,.17394-.50489,.33421l-.11444,.17704c-.0583,.1206-.07184,.24591-.04062,.37593,.05161,.10967,.06937,.22599,.07817,.34591l-.01356-.18864c.01367,.22151,.01199,.44591,.05281,.66464l1.70871-.8229c-.0745-.03859-.14107-.08624-.2022-.14368l.14057,.13511c-.07877-.07807-.14102-.16669-.18976-.26625l.08257,.17015c-.03488-.07599-.06032-.15409-.07771-.23586-.04093-.19251-.24022-.33746-.41077-.40136-.21871-.08195-.51461-.08144-.73597-.01464-.40007,.12073-.8882,.44872-.78511,.93364h0Z" style="fill:#231815;"/><path d="M58.89098,106.38536c.16575-.27626,.34486-.56089,.41096-.88063,.02747-.0585,.02044-.10775-.0211-.14775-.02994-.05768-.08007-.09193-.15038-.10274l-.1705-.03217c-.15115-.01137-.30147-.00407-.45097,.0219-.21557,.02896-.45687,.09314-.65836,.17549-.17352,.07092-.36526,.15439-.51239,.27393-.14648,.11902-.27976,.24935-.34719,.43083-.03905,.10511-.04922,.22409-.04964,.33489-.0002,.05359,.00296,.11393,.02666,.1631,.02148,.06026,.06156,.09893,.12025,.116,.06994,.04142,.14683,.06208,.23068,.062,.11085,.01066,.2211,.00763,.33075-.00908,.12897-.00948,.25578-.03242,.38043-.0688l.25335-.08163c.14245-.05226,.27628-.12109,.4015-.20652l.13157-.11311c.06518-.0591,.09296-.13126,.08333-.2165-.03146-.06528-.02977-.14908-.02413-.21936l-.00894,.10467c.00912-.10067,.0382-.19914,.09387-.28413l-.0744,.11183c.02265-.0333,.04868-.06324,.0788-.08999l-.13157,.11311c.0184-.01568,.03769-.02979,.05817-.04262l-.18045,.10851c.01638-.00979,.03312-.01859,.05045-.02659l-.22104,.09801c.01536-.00671,.03088-.01271,.04674-.01813l-.25335,.08163c.01692-.00539,.03392-.01004,.05121-.01406l-.26022,.05598c.01853-.00393,.03708-.0071,.05585-.00962l-.79295-.26077c-.0661,.31973-.24522,.60437-.41096,.88063-.02747,.0585-.02044,.10775,.0211,.14775,.02994,.05768,.08007,.09193,.15038,.10274,.09032,.02693,.18225,.03828,.27577,.03405,.11587,.0064,.2311-.00152,.3457-.02377,.25123-.04427,.51012-.11188,.73461-.23562l.18045-.10851c.08963-.05644,.15829-.13143,.20597-.22495h0Z" style="fill:#231815;"/></g></svg>